<svg xmlns="http://www.w3.org/2000/svg" width="136" height="136"><path style="fill:#c6993d;" d="M128.94 77.41l.87-.57a3.72 3.72 0 00-4.25-6.09c-58 40.55-100.23 2-102 .33a3.71 3.71 0 00-5.1 5.4c.07.08 1.4 1.28 3.8 3.07l-7.43 12.26a3.72 3.72 0 006.35 3.86l7.27-11.97a89.1 89.1 0 0015.52 7.47l-3.58 11.98a3.7 3.7 0 002.48 4.6l1.06.17a3.72 3.72 0 003.55-2.65l3.55-11.81a84.15 84.15 0 0019.1 2.88v11.86a3.7 3.7 0 107.42 0V96.28A87.28 87.28 0 0096.71 93l4.57 12.03a3.72 3.72 0 003.47 2.4l1.3-.24a3.7 3.7 0 002.17-4.78l-4.45-11.73a110.1 110.1 0 0018.91-9.2l6.01 8.02a3.73 3.73 0 005.19.74 3.71 3.71 0 00.75-5.19l-5.69-7.64zM136.99 48.4s-1.48-2.15-4.6-5.01a59.57 59.57 0 00-5.88-4.8c-2.38-1.6-5.09-3.48-8.23-5.07a72.13 72.13 0 00-10.38-4.54c-3.76-1.48-7.9-2.35-12.22-3.13-4.33-.55-8.9-.65-13.52-.45-4.63.4-9.25.4-13.91.97-4.64.38-9.25.8-13.75 1.7-2.25.4-4.49.7-6.66 1.19l-6.4 1.76a76.73 76.73 0 00-11.8 3.95 72.26 72.26 0 00-10.1 4.54c-3.03 1.6-5.8 2.97-8.2 4.34l-5.9 4L.4 51.38 0 52.65c.19.58.82.9 1.41.7l.12-.05 5.72-1.94 6.45-2.27c2.52-.72 5.45-1.36 8.55-2.13 3.07-.88 6.51-1.4 10.15-1.85l5.5-.81c1.9-.2 3.86-.26 5.82-.4l5.95-.37 6.13.05c4.09-.12 8.27.23 12.42.6 8.29.58 16.33 3.3 23.89 4.57 7.59 1.26 14.88 1.61 21.31 1.97 6.46.18 12.02.3 16.1.1 4.05-.14 6.55-.4 6.55-.4l.61-.23c.57-.4.71-1.2.3-1.79z"/></svg>
