<?xml version="1.0" encoding="UTF-8" standalone="no"?>
<svg
   xmlns:dc="http://purl.org/dc/elements/1.1/"
   xmlns:cc="http://creativecommons.org/ns#"
   xmlns:rdf="http://www.w3.org/1999/02/22-rdf-syntax-ns#"
   xmlns:svg="http://www.w3.org/2000/svg"
   xmlns="http://www.w3.org/2000/svg"
   id="svg4"
   version="1.1"
   height="32"
   width="32">
  <metadata
     id="metadata10">
    <rdf:RDF>
      <cc:Work
         rdf:about="">
        <dc:format>image/svg+xml</dc:format>
        <dc:type
           rdf:resource="http://purl.org/dc/dcmitype/StillImage" />
        <dc:title></dc:title>
      </cc:Work>
    </rdf:RDF>
  </metadata>
  <defs
     id="defs8" />
  <path
     id="path2"
     d="m 30.014981,17.879002 0.20252,-0.132686 A 0.86595105,0.86595105 0 0 0 29.228176,16.328671 C 15.726788,25.768003 5.8963817,16.794236 5.4843566,16.405489 a 0.86451382,0.86451382 0 0 0 -1.1871909,1.257026 c 0.016295,0.01862 0.3258955,0.297961 0.8845736,0.714642 l -1.7295742,2.853914 a 0.86595105,0.86595105 0 0 0 1.4781691,0.898541 l 1.6923291,-2.786407 a 20.740924,20.740924 0 0 0 3.6127847,1.738885 l -0.8333612,2.788735 a 0.8612954,0.8612954 0 0 0 0.5773007,1.0708 l 0.2467495,0.03957 a 0.86595105,0.86595105 0 0 0 0.826378,-0.616874 l 0.826378,-2.749162 a 19.588651,19.588651 0 0 0 4.446147,0.670414 v 2.760801 a 0.86362322,0.86362322 0 1 0 1.727246,0 v -2.774765 a 20.31726,20.31726 0 0 0 4.460113,-0.763527 l 1.063817,2.800374 a 0.86595105,0.86595105 0 0 0 0.807755,0.558678 l 0.302617,-0.05587 a 0.8612954,0.8612954 0 0 0 0.505138,-1.112698 l -1.035882,-2.730539 a 25.629358,25.629358 0 0 0 4.401918,-2.1416 l 1.399023,1.866916 a 0.86827887,0.86827887 0 0 0 1.208141,0.172259 0.86362322,0.86362322 0 0 0 0.174587,-1.208141 z m 1.873899,-6.753021 c 0,0 -0.344518,-0.500482 -1.0708,-1.166241 A 13.866856,13.866856 0 0 0 29.449319,8.842384 C 28.895297,8.469932 28.264456,8.032301 27.533519,7.662177 A 16.790605,16.790605 0 0 0 25.117236,6.605344 C 24.241974,6.260826 23.278254,6.058305 22.272633,5.876735 21.264685,5.748704 20.200869,5.725426 19.125413,5.771983 c -1.077783,0.09311 -2.153238,0.09311 -3.238005,0.225799 -1.080111,0.08846 -2.153238,0.186226 -3.20076,0.39573 -0.52376,0.09311 -1.045193,0.162948 -1.550331,0.277011 L 9.6465084,7.08022 A 17.861404,17.861404 0 0 0 6.8996745,7.999711 16.820866,16.820866 0 0 0 4.5485708,9.056544 C 3.8432397,9.428996 3.1984321,9.747908 2.639754,10.06682 L 1.266337,10.997951 0.09311302,11.819673 0,12.115307 c 0.04422868,0.135014 0.19088168,0.209504 0.32822338,0.162947 l 0.0279339,-0.01164 1.33151612,-0.451599 1.5014474,-0.528416 c 0.586612,-0.167603 1.2686648,-0.316584 1.9902907,-0.495827 0.7146424,-0.204848 1.5154143,-0.325895 2.3627428,-0.430647 l 1.280304,-0.188554 c 0.4422868,-0.04656 0.8985406,-0.06052 1.3547947,-0.09311 l 1.385056,-0.08613 1.426957,0.01164 c 0.95208,-0.02793 1.925111,0.05354 2.891159,0.139669 1.929767,0.135014 3.801339,0.768183 5.561175,1.063816 1.766819,0.293306 3.463804,0.37478 4.960596,0.458582 1.503775,0.0419 2.798046,0.06984 3.747799,0.02328 0.942769,-0.03259 1.524725,-0.09311 1.524725,-0.09311 l 0.141998,-0.05354 c 0.132686,-0.09311 0.165275,-0.279339 0.06983,-0.416681 z"
     style="fill:#c6993d;stroke-width:0.23278254" />
</svg>
