<?xml version="1.0" encoding="UTF-8" standalone="no"?>
<!-- Created with Inkscape (http://www.inkscape.org/) -->

<svg
   xmlns:dc="http://purl.org/dc/elements/1.1/"
   xmlns:cc="http://creativecommons.org/ns#"
   xmlns:rdf="http://www.w3.org/1999/02/22-rdf-syntax-ns#"
   xmlns:svg="http://www.w3.org/2000/svg"
   xmlns="http://www.w3.org/2000/svg"
   xmlns:sodipodi="http://sodipodi.sourceforge.net/DTD/sodipodi-0.dtd"
   xmlns:inkscape="http://www.inkscape.org/namespaces/inkscape"
   version="1.1"
   id="svg2"
   width="163.84"
   height="163.84"
   viewBox="0 0 163.84 163.84"
   sodipodi:docname="toilet.svg"
   inkscape:version="0.92.4 (5da689c313, 2019-01-14)">
  <metadata
     id="metadata8">
    <rdf:RDF>
      <cc:Work
         rdf:about="">
        <dc:format>image/svg+xml</dc:format>
        <dc:type
           rdf:resource="http://purl.org/dc/dcmitype/StillImage" />
        <dc:title />
      </cc:Work>
    </rdf:RDF>
  </metadata>
  <defs
     id="defs6" />
  <sodipodi:namedview
     pagecolor="#ffffff"
     bordercolor="#666666"
     borderopacity="1"
     objecttolerance="10"
     gridtolerance="10"
     guidetolerance="10"
     inkscape:pageopacity="0"
     inkscape:pageshadow="2"
     inkscape:window-width="1279"
     inkscape:window-height="1021"
     id="namedview4"
     showgrid="false"
     inkscape:zoom="2.8808594"
     inkscape:cx="54.390881"
     inkscape:cy="59.391174"
     inkscape:window-x="1920"
     inkscape:window-y="0"
     inkscape:window-maximized="0"
     inkscape:current-layer="svg2" />
  <path
     style="fill:#c6993d;fill-opacity:1;stroke-width:0.30881652"
     d="m 73.152416,159.08663 c -4.149104,-0.27543 -8.428436,-0.96227 -10.939807,-1.75586 -7.833107,-2.47528 -11.62304,-9.27921 -8.616337,-15.46859 0.529548,-1.09009 1.549194,-2.30628 3.1069,-3.7058 l 2.318661,-2.08318 -0.205484,-3.08816 c -0.364804,-5.4826 -1.433631,-9.47355 -2.877308,-10.74375 -0.286218,-0.25183 -1.392945,-0.80654 -2.459391,-1.2327 -4.490995,-1.79461 -8.065612,-4.75995 -9.950443,-8.25443 l -1.080858,-2.00391 -0.09353,-13.896753 -0.09352,-13.896741 1.483193,-1.306117 1.483197,-1.306121 -2.515207,-0.0064 C 36.583825,80.322688 31.622521,77.105721 28.890951,71.376125 L 27.933972,69.368818 V 47.436461 25.504083 l 1.015002,-2.061853 c 1.596028,-3.242156 4.588678,-5.525279 8.618005,-6.574789 1.375133,-0.358172 3.804438,-0.460653 10.920312,-0.460653 8.979177,0 9.162847,-0.01257 9.740044,-0.664594 1.084622,-1.225285 5.054636,-4.239807 7.062273,-5.362554 C 73.819764,5.6093146 82.882124,4.6165604 91.700626,7.4863978 96.02264,8.89294 100.45952,11.496687 103.95142,14.675702 l 1.90146,1.731086 9.06153,0.0069 c 5.07183,0.0047 9.66763,0.147232 10.43813,0.324789 3.55551,0.81935 6.77467,3.387304 8.25107,6.581941 l 0.87208,1.887018 0.0858,21.308336 c 0.0569,14.13591 -0.0241,21.821592 -0.24077,22.833144 -0.87764,4.09702 -3.93064,8.012252 -7.62126,9.773621 -1.7975,0.857868 -2.52536,1.021449 -5.09569,1.14522 l -2.99865,0.144395 1.07572,1.408837 1.07574,1.408837 -0.0888,14.0759 -0.0888,14.075894 -1.0111,2.05315 c -1.69145,3.43469 -4.86636,5.87968 -9.89334,7.61886 -2.65424,0.91828 -3.4423,1.75676 -4.22925,4.49978 -0.54119,1.8865 -1.0787,6.42975 -1.06182,8.97509 l 0.0123,1.85289 1.69728,1.21672 c 5.55917,3.98514 6.23827,11.24061 1.49599,15.9829 -2.64435,2.64435 -6.66001,4.23642 -12.73242,5.04797 -4.072293,0.54423 -16.460661,0.8051 -21.704145,0.45702 z m 22.830094,-7.22965 c 3.20781,-0.66306 5.48039,-1.66533 6.68506,-2.94826 0.7926,-0.84409 0.92645,-1.22694 0.92645,-2.64996 0,-1.5232 -0.10415,-1.77024 -1.23526,-2.93223 -0.67939,-0.6979 -2.1247,-1.69445 -3.21181,-2.21455 l -1.97653,-0.94563 0.1958,-4.3627 c 0.22223,-4.95131 0.81275,-8.97387 1.77646,-12.10089 1.7438,-5.65831 3.71742,-7.64888 8.06743,-8.13671 1.25783,-0.14106 2.90432,-0.52956 3.65886,-0.86335 1.46178,-0.64662 3.21842,-2.41349 3.73341,-3.75515 0.34424,-0.89681 0.77847,-16.971464 0.47951,-17.750531 -0.16194,-0.422035 -0.36023,-0.38943 -1.51368,0.248945 -4.30226,2.381091 -11.93022,4.6404 -18.92986,5.606797 -5.036449,0.695334 -19.779276,0.789569 -25.014144,0.159875 -9.084174,-1.092725 -16.47262,-3.265313 -20.304689,-5.97067 l -0.849245,-0.599544 0.0067,8.281868 c 0.0063,7.65927 0.05401,8.38635 0.635106,9.67155 1.313902,2.90597 3.662514,4.53258 7.182725,4.9746 2.395107,0.30073 4.307817,1.24981 5.336467,2.6479 2.516033,3.4197 3.967005,9.30667 4.339435,17.60622 l 0.196706,4.38358 -1.685181,0.74527 c -2.893146,1.27949 -4.894617,3.45111 -4.894617,5.31073 0,2.77075 3.219351,4.87614 8.692263,5.68457 1.248896,0.18447 2.618144,0.39247 3.042766,0.46219 0.424623,0.0697 5.566418,0.0936 11.426213,0.0529 8.676103,-0.06 11.133071,-0.17275 13.233605,-0.60694 z M 92.939856,95.899641 c 11.175194,-1.32315 20.625514,-4.929597 22.316414,-8.516441 0.68673,-1.456733 0.35061,-2.631051 -1.17845,-4.117114 -4.49312,-4.36682 -16.31752,-6.998132 -31.637727,-7.040415 -10.094536,-0.02785 -17.80674,0.936458 -24.242099,3.031186 -5.782442,1.8822 -10.036539,4.790736 -10.036539,6.862008 0,1.24078 1.177083,2.636082 3.478834,4.123772 8.003779,5.173096 25.335685,7.547131 41.299567,5.657004 z M 74.601245,92.345539 c -9.004764,-0.949738 -15.322394,-3.572934 -15.322394,-6.362114 0,-3.055162 6.237405,-5.219209 17.222487,-5.975286 11.910751,-0.819788 24.537062,1.167575 27.375772,4.308899 2.10028,2.324181 -1.19397,5.276581 -7.62492,6.833704 -5.641394,1.365933 -15.086533,1.887169 -21.650945,1.194797 z m 16.66351,-3.5325 c 3.119215,-0.468239 7.369955,-1.481126 8.635285,-2.057647 1.94536,-0.886366 -0.53583,-2.246804 -5.87933,-3.223625 -4.367863,-0.798472 -19.947276,-0.824596 -24.087687,-0.0404 -9.164063,1.735696 -9.150707,2.97433 0.05279,4.896251 5.871759,1.226171 14.760841,1.403879 21.278943,0.42542 z M 60.822935,75.271435 c 6.128143,-1.691834 10.667913,-2.162887 20.845118,-2.162887 11.373089,0 15.523367,0.532378 24.299317,3.11696 1.0214,0.300811 3.44912,-5.63949 4.62776,-11.323553 0.79191,-3.819028 1.10586,-13.938229 0.58675,-18.911598 C 109.3419,28.36273 101.18141,16.685779 88.087885,12.944884 c -3.426979,-0.979098 -9.412687,-0.979098 -12.839666,0 -12.60969,3.602667 -20.613367,14.320656 -22.908506,30.677549 -1.63267,11.635633 -0.467883,22.456534 3.296342,30.623133 0.819107,1.777073 1.081549,2.098518 1.615549,1.978777 0.350667,-0.07864 1.957764,-0.507438 3.571331,-0.952908 z m -9.701768,-1.931717 c -2.330183,-6.072352 -3.444822,-16.5415 -2.675014,-25.12483 0.858804,-9.575595 3.233629,-17.404099 7.283735,-24.010481 l 0.804622,-1.312471 h -8.162315 c -8.924586,0 -10.021762,0.16696 -11.747815,1.787689 -1.788069,1.678973 -1.742626,1.081115 -1.735256,22.830515 0.0065,19.431578 0.02476,20.045419 0.63317,21.38668 0.977143,2.154155 1.98638,3.274273 3.73548,4.145876 1.546757,0.770785 1.82892,0.803973 6.83564,0.803973 4.715334,0 5.203404,-0.04921 5.027753,-0.506951 z m 72.567783,-0.07759 c 0.69141,-0.314028 1.69505,-1.102261 2.23031,-1.751616 1.95352,-2.369959 1.91687,-1.909108 1.91687,-24.102575 0,-13.524709 -0.10828,-20.438279 -0.3294,-21.021714 -0.46838,-1.236255 -1.4841,-2.251052 -2.91318,-2.910621 -1.10409,-0.509579 -2.13035,-0.570824 -9.66535,-0.576884 l -8.4301,-0.007 0.90086,1.312471 c 2.46255,3.58773 4.75897,9.329908 6.0305,15.079087 1.15513,5.222919 1.53236,9.047822 1.52046,15.416544 -0.0136,7.295949 -0.58749,11.140918 -2.77698,18.606201 -0.14658,0.499774 0.23326,0.539917 5.0502,0.533648 4.39788,-0.0059 5.40437,-0.09561 6.46581,-0.577758 z"
     id="path817"
     inkscape:connector-curvature="0" />
</svg>
