<?xml version="1.0" encoding="UTF-8" standalone="no"?>
<svg
   xmlns:dc="http://purl.org/dc/elements/1.1/"
   xmlns:cc="http://creativecommons.org/ns#"
   xmlns:rdf="http://www.w3.org/1999/02/22-rdf-syntax-ns#"
   xmlns:svg="http://www.w3.org/2000/svg"
   xmlns="http://www.w3.org/2000/svg"
   xmlns:xlink="http://www.w3.org/1999/xlink"
   xmlns:sodipodi="http://sodipodi.sourceforge.net/DTD/sodipodi-0.dtd"
   xmlns:inkscape="http://www.inkscape.org/namespaces/inkscape"
   id="svg8"
   version="1.1"
   viewBox="0 0 67.73333 67.733334"
   height="256"
   width="256"
   sodipodi:docname="wax-gold.svg"
   inkscape:version="0.92.4 (5da689c313, 2019-01-14)">
  <sodipodi:namedview
     pagecolor="#ffffff"
     bordercolor="#666666"
     borderopacity="1"
     objecttolerance="10"
     gridtolerance="10"
     guidetolerance="10"
     inkscape:pageopacity="0"
     inkscape:pageshadow="2"
     inkscape:window-width="1279"
     inkscape:window-height="1021"
     id="namedview14"
     showgrid="false"
     units="px"
     inkscape:zoom="1.9242104"
     inkscape:cx="76.760161"
     inkscape:cy="170.82201"
     inkscape:window-x="1920"
     inkscape:window-y="0"
     inkscape:window-maximized="0"
     inkscape:current-layer="svg8" />
  <defs
     id="defs2">
    <linearGradient
       id="linearGradient5288">
      <stop
         id="stop5284"
         offset="0"
         style="stop-color:#ddc97c;stop-opacity:0.49803922" />
      <stop
         id="stop5286"
         offset="1"
         style="stop-color:#ddc97c;stop-opacity:1" />
    </linearGradient>
    <radialGradient
       r="81.816101"
       fy="570.62146"
       fx="288.62912"
       cy="570.62146"
       cx="288.62912"
       gradientTransform="matrix(-0.07924987,0,0,0.20298159,68.907199,-78.132194)"
       gradientUnits="userSpaceOnUse"
       id="radialGradient1017-2-6"
       xlink:href="#linearGradient5288" />
    <radialGradient
       gradientUnits="userSpaceOnUse"
       gradientTransform="matrix(-0.07924987,0,0,0.20298159,68.907199,-78.132194)"
       r="81.816101"
       fy="570.62146"
       fx="288.62912"
       cy="570.62146"
       cx="288.62912"
       id="radialGradient1037-2-9"
       xlink:href="#linearGradient5288" />
  </defs>
  <metadata
     id="metadata5">
    <rdf:RDF>
      <cc:Work
         rdf:about="">
        <dc:format>image/svg+xml</dc:format>
        <dc:type
           rdf:resource="http://purl.org/dc/dcmitype/StillImage" />
        <dc:title></dc:title>
      </cc:Work>
    </rdf:RDF>
  </metadata>
  <g
     id="g830"
     transform="translate(5.8208336,-1.0583333)">
    <path
       inkscape:connector-curvature="0"
       id="path960-3-1"
       d="m 44.070505,64.270832 c 1.220606,-0.175645 2.380545,-1.127898 2.986697,-2.451904 0.297345,-0.649476 0.337927,-2.416921 0.337927,-2.416921 -0.05378,-1.447223 -0.209324,-1.837992 -0.543357,-2.896115 -0.463585,-1.468485 -1.476656,-4.626376 -1.474793,-6.469345 0.0014,-1.407891 0.176322,-2.808679 1.141386,-4.753991 0.459794,-0.926836 1.284416,-2.460191 2.233332,-3.52636 0.991474,-1.113981 1.829144,-2.390851 2.143902,-3.267965 0.251713,-0.701445 0.217104,-2.019968 -0.06961,-2.651469 C 50.169865,34.39152 49.413768,33.588964 47.276106,32.068752 44.721221,30.251828 43.207791,29.124872 42.499975,28.51224 42.25455,28.299871 41.81585,27.977308 41.525081,27.795574 41.234315,27.613889 40.514383,27.08821 39.925232,26.627522 39.336084,26.166834 38.203115,25.296002 37.407527,24.692333 35.751921,23.436096 34.551779,22.515107 33.456991,21.660607 33.037213,21.332969 32.030477,20.561339 31.219799,19.945832 30.40912,19.330349 29.149639,18.351158 28.420943,17.769862 27.692255,17.188566 26.692407,16.405218 26.199057,16.029067 25.374433,15.400368 23.345051,13.813595 21.350841,12.238273 20.906318,11.887103 20.15094,11.297931 19.672227,10.929004 19.19351,10.560053 18.158364,9.7515536 17.371904,9.1323019 15.152786,7.3850074 14.664669,7.0461597 13.336864,6.3310642 12.215328,5.7270576 12.010666,5.6595297 11.150099,5.6097112 10.051397,5.5461697 9.6168986,5.6957218 8.2217835,6.618209 7.2131891,7.2850806 6.3120813,8.2725347 5.4764575,9.6265967 5.117105,10.663555 5.1339882,10.836591 5.1339882,10.836591 c -0.1468944,0.834544 -0.1838355,1.438526 -0.056245,2.026104 -0.00242,0.324086 0.17939,0.651602 0.3427013,0.882454 0.9978865,1.333332 1.925602,2.201894 4.8018355,4.417317 1.230982,0.94817 2.433992,1.881046 2.673345,2.073048 0.239356,0.192074 1.498311,1.153362 2.797694,2.136395 1.29936,0.983009 2.642255,2.003393 2.984196,2.267489 0.341937,0.264144 1.483909,1.134615 2.537709,1.93444 1.053803,0.799826 2.208724,1.678027 2.566494,1.951594 0.35777,0.273542 1.230137,0.932924 1.938593,1.465296 1.175842,0.883565 2.451281,1.8773 5.434436,4.234134 2.366957,1.870005 7.351717,6.670649 8.413288,8.102507 0.896481,1.209197 1.01352,1.473051 1.391058,3.136171 0.357517,1.569596 0.808995,4.418164 0.385717,6.235209 l -0.453189,2.213732 c -0.149359,0.746069 -0.474143,1.778534 -0.578435,2.154661 -0.104276,0.376127 -0.306398,1.10352 -0.449125,1.616418 -0.191833,0.689365 -0.463389,1.512578 -0.477296,2.661471 0.046,1.148313 0.209856,1.439976 0.466124,1.960146 0.325287,0.660349 1.216312,1.536955 1.804277,1.775079 0.538051,0.217926 1.626152,0.303864 2.413354,0.190625 z m -2.091619,-1.771503 c -0.669389,-0.447182 -1.064025,-0.961433 -1.059758,-2.328904 0.0056,-1.781651 0.511861,-3.874558 0.993013,-5.486506 0.581649,-1.948622 0.757707,-3.747523 0.661718,-6.761178 -0.08649,-2.715807 -0.206763,-3.297296 -1.014678,-4.905935 -0.824099,-1.640868 -2.248535,-3.199761 -6.753989,-7.391494 -1.242273,-1.155755 -2.29281,-2.208949 -2.334532,-2.340381 -0.121381,-0.382457 0.04844,-0.822222 0.408867,-1.058751 0.28346,-0.186034 0.730174,-0.228556 2.953285,-0.28137 l 1.388655,-0.0097 c 0,0 5.308401,-0.142546 4.016402,-2.571281 1.069324,0.799101 4.596435,3.327618 5.446149,3.893548 0.950998,0.633409 2.248827,1.88926 2.553938,2.471353 0.206159,0.393329 0.265154,0.726765 0.265444,1.500449 5.07e-4,1.249714 -0.221743,1.765415 -1.339411,3.108532 -2.207316,2.652556 -2.038042,2.346445 -3.447948,6.235547 -0.352962,0.97361 -0.48623,2.521148 -0.352073,4.088303 0.150881,1.762636 0.25404,2.306266 0.783005,4.126501 0.887064,3.052432 1.536977,6.323828 0.03576,7.479148 -0.370135,0.306956 -1.126356,0.709321 -1.960436,0.714878 -0.652482,0.0048 -0.907607,-0.258563 -1.243418,-0.482916 z M 26.273876,28.730842 C 22.658215,25.992421 15.017686,20.177529 13.533707,19.034869 12.205511,18.012117 11.413801,17.407675 10.583019,16.782118 8.772797,15.419044 7.0146835,13.709416 6.6139155,12.922419 6.2983148,12.302708 6.3183292,11.032507 6.655592,10.269815 6.8229501,9.8914898 7.317402,9.277191 8.020456,8.5741273 8.9467605,7.6478228 9.2291892,7.4401411 9.7883447,7.2740876 10.601845,7.032485 11.431127,7.0218545 12.167747,7.2436457 c 0.657768,0.1978726 2.274662,1.2661187 4.085,2.6986773 2.433485,1.925646 2.920565,2.308441 3.792417,2.980362 0.478719,0.368927 1.513866,1.178658 2.300326,1.799384 0.786462,0.620725 1.578252,1.238697 1.759531,1.373269 0.181275,0.134573 1.184114,0.916133 2.228521,1.736785 2.265015,1.779766 2.672725,2.096096 4.887897,3.792437 0.937708,0.718067 2.028061,1.55737 2.423006,1.865124 0.394943,0.307729 1.413441,1.087767 2.263327,1.733354 2.949847,2.240792 3.238108,2.494861 3.49842,3.083333 0.277119,0.626475 0.228967,1.24377 -0.121791,1.561188 -0.509719,0.461291 -0.910804,0.510748 -4.753416,0.586079 -3.706311,-0.336359 -3.391741,1.594191 -3.77279,1.607697 -1.274442,-0.744378 -3.436022,-2.539824 -4.484353,-3.330396 z"
       style="fill:#ffffff;fill-opacity:1;stroke-width:0.12434179" />
    <path
       inkscape:connector-curvature="0"
       id="path985-6-9"
       d="m 44.575916,62.509235 c 1.11481,-0.555541 1.398901,-1.167931 1.379027,-2.972607 -0.01281,-1.165466 -0.134959,-1.846399 -0.771116,-4.299971 -0.68425,-2.63905 -0.763343,-3.108991 -0.834814,-4.960078 -0.08949,-2.317646 0.01087,-2.971398 0.767881,-4.997043 0.762186,-2.039803 1.154452,-2.731584 2.452042,-4.32418 1.54732,-1.899118 1.840792,-2.486864 1.840792,-3.686518 0,-1.164187 -0.22858,-1.660897 -1.205694,-2.620132 -0.584567,-0.573879 -6.543046,-4.99325 -6.732202,-4.99325 -0.02126,0 -0.0075,0.163081 0.03071,0.362379 0.05199,0.271997 -0.05494,0.486588 -0.428731,0.860372 -0.763694,0.763705 -1.649496,0.96223 -4.962608,1.11229 -1.582113,0.07176 -3.007982,0.20053 -3.168597,0.286565 -0.160617,0.08601 -0.334851,0.326912 -0.387195,0.535464 -0.08666,0.345298 0.256773,0.725677 3.845643,4.259309 5.647766,5.560847 6.019044,6.204428 6.232524,10.803842 0.12631,2.721605 -0.06992,4.536984 -0.793539,7.340347 -1.220359,4.72785 -1.142645,6.439025 0.331672,7.303044 0.80293,0.470545 1.445492,0.467912 2.404219,-0.0097 z"
       style="opacity:1;fill:url(#radialGradient1017-2-6);fill-opacity:1;stroke:url(#radialGradient1037-2-9);stroke-width:0.37942427;stroke-miterlimit:4;stroke-dasharray:none" />
  </g>
</svg>
