<?xml version="1.0" encoding="UTF-8" standalone="no"?>
<svg
   xmlns:dc="http://purl.org/dc/elements/1.1/"
   xmlns:cc="http://creativecommons.org/ns#"
   xmlns:rdf="http://www.w3.org/1999/02/22-rdf-syntax-ns#"
   xmlns:svg="http://www.w3.org/2000/svg"
   xmlns="http://www.w3.org/2000/svg"
   xmlns:xlink="http://www.w3.org/1999/xlink"
   id="svg8"
   version="1.1"
   viewBox="0 0 45.06282 54.698639"
   height="54.698639mm"
   width="45.06282mm">
  <defs
     id="defs2">
    <linearGradient
       id="linearGradient5288">
      <stop
         id="stop5284"
         offset="0"
         style="stop-color:#EAD989;stop-opacity:0.5" />
      <stop
         id="stop5286"
         offset="1"
         style="stop-color:#EAD989;stop-opacity:1" />
    </linearGradient>
    <radialGradient
       r="81.816101"
       fy="570.62146"
       fx="288.62912"
       cy="570.62146"
       cx="288.62912"
       gradientTransform="matrix(-0.03280174,0,0,0.08401464,60.863399,26.200399)"
       gradientUnits="userSpaceOnUse"
       id="radialGradient1017-2-6"
       xlink:href="#linearGradient5288" />
    <radialGradient
       gradientUnits="userSpaceOnUse"
       gradientTransform="matrix(-0.03280174,0,0,0.08401464,60.863399,26.200399)"
       r="81.816101"
       fy="570.62146"
       fx="288.62912"
       cy="570.62146"
       cx="288.62912"
       id="radialGradient1037-2-9"
       xlink:href="#linearGradient5288" />
  </defs>
  <metadata
     id="metadata5">
    <rdf:RDF>
      <cc:Work
         rdf:about="">
        <dc:format>image/svg+xml</dc:format>
        <dc:type
           rdf:resource="http://purl.org/dc/dcmitype/StillImage" />
        <dc:title></dc:title>
      </cc:Work>
    </rdf:RDF>
  </metadata>
  <g
     transform="translate(-29.412034,-35.463463)"
     id="layer1">
    <g
       transform="matrix(1.8389981,0,0,1.8389981,-28.87163,-71.450839)"
       id="g5336">
      <path
         style="fill:#000000;stroke-width:0.05146541"
         d="m 50.583423,85.141405 c 0.505212,-0.0727 0.985314,-0.46684 1.236202,-1.01485 0.123072,-0.26882 0.139869,-1.00037 0.139869,-1.00037 -0.02226,-0.59901 -0.08664,-0.76075 -0.224897,-1.19871 -0.191879,-0.60781 -0.611192,-1.91487 -0.610421,-2.67768 5.87e-4,-0.58273 0.07298,-1.16252 0.472423,-1.96769 0.19031,-0.38362 0.531623,-1.01828 0.924382,-1.45957 0.410374,-0.46108 0.757088,-0.98958 0.887367,-1.35262 0.104185,-0.29033 0.08986,-0.83607 -0.02881,-1.09745 -0.271573,-0.59819 -0.584524,-0.93037 -1.469308,-1.55959 -1.057474,-0.75203 -1.683887,-1.21848 -1.976854,-1.47205 -0.101582,-0.0879 -0.283161,-0.22141 -0.403511,-0.29663 -0.120349,-0.0752 -0.418331,-0.29278 -0.662182,-0.48346 -0.24385,-0.19068 -0.712789,-0.55112 -1.042085,-0.80098 -0.68526,-0.51996 -1.182002,-0.90116 -1.635138,-1.25484 -0.173747,-0.13561 -0.590438,-0.45499 -0.92598,-0.70975 -0.335542,-0.25475 -0.856845,-0.66004 -1.158454,-0.90064 -0.301606,-0.2406 -0.715446,-0.56483 -0.919645,-0.72052 -0.341314,-0.26022 -1.181281,-0.91699 -2.00669,-1.56902 -0.183989,-0.14535 -0.496642,-0.38921 -0.694783,-0.54191 -0.198142,-0.15271 -0.626592,-0.48735 -0.95211,-0.74366 -0.918499,-0.72321 -1.120532,-0.86346 -1.670114,-1.15944 -0.464207,-0.25 -0.548917,-0.27795 -0.905108,-0.29857 -0.454756,-0.0263 -0.634596,0.0356 -1.212038,0.41742 -0.41746,0.27602 -0.790431,0.68473 -1.136298,1.24518 -0.148737,0.4292 -0.141749,0.50082 -0.141749,0.50082 -0.0608,0.34542 -0.07609,0.59541 -0.02328,0.83861 -0.001,0.13414 0.07425,0.2697 0.141845,0.36525 0.413028,0.55187 0.797012,0.91137 1.987493,1.82834 0.509507,0.39245 1.007436,0.77857 1.106505,0.85804 0.09907,0.0795 0.620155,0.47738 1.157973,0.88426 0.537809,0.40687 1.093637,0.82921 1.235167,0.93852 0.141529,0.10933 0.614194,0.46962 1.050365,0.80067 0.436172,0.33105 0.914197,0.69454 1.062279,0.80777 0.148082,0.11322 0.509157,0.38614 0.802389,0.60649 0.486684,0.36571 1.014592,0.77702 2.249328,1.75252 0.97969,0.774 3.042896,2.761 3.482283,3.35365 0.371056,0.50049 0.419499,0.6097 0.575763,1.29807 0.147977,0.64966 0.334845,1.82869 0.159649,2.58077 l -0.187576,0.91627 c -0.06182,0.3088 -0.196249,0.73614 -0.239416,0.89182 -0.04316,0.15568 -0.126819,0.45675 -0.185894,0.66904 -0.0794,0.28533 -0.191798,0.62606 -0.197554,1.10159 0.01904,0.47529 0.08686,0.59601 0.19293,0.81131 0.134637,0.27332 0.503435,0.63615 0.746795,0.73471 0.222701,0.0902 0.673069,0.12577 0.998894,0.0789 z m -0.865727,-0.73323 c -0.277062,-0.18509 -0.440403,-0.39794 -0.438637,-0.96394 0.0023,-0.73743 0.211861,-1.60369 0.411011,-2.27088 0.240746,-0.80654 0.313617,-1.55111 0.273887,-2.79847 -0.0358,-1.12408 -0.08558,-1.36476 -0.419978,-2.03058 -0.341097,-0.67916 -0.930675,-1.32439 -2.795495,-3.05936 -0.51418,-0.47837 -0.949,-0.91429 -0.966269,-0.96869 -0.05024,-0.1583 0.02005,-0.34032 0.169231,-0.43822 0.117325,-0.077 0.302221,-0.0946 1.222373,-0.11646 l 0.574768,-0.004 c 0,0 2.197162,-0.059 1.6624,-1.06426 0.442596,0.33075 1.902477,1.37731 2.254176,1.61155 0.393621,0.26217 0.930796,0.78197 1.057082,1.0229 0.08533,0.1628 0.109748,0.30081 0.109868,0.62104 2.1e-4,0.51726 -0.09178,0.73071 -0.554386,1.28663 -0.913614,1.0979 -0.843551,0.9712 -1.427115,2.58091 -0.146092,0.40298 -0.201252,1.04351 -0.145724,1.69216 0.06245,0.72956 0.105148,0.95457 0.324088,1.70797 0.367158,1.26341 0.636159,2.61745 0.0148,3.09564 -0.1532,0.12705 -0.466202,0.29359 -0.81143,0.29589 -0.270064,0.002 -0.375661,-0.10702 -0.514654,-0.19988 z m -6.500347,-13.97687 c -1.496532,-1.13344 -4.658968,-3.54024 -5.273191,-4.01319 -0.549744,-0.42332 -0.877435,-0.6735 -1.221298,-0.93242 -0.749256,-0.56418 -1.476944,-1.2718 -1.642823,-1.59754 -0.130628,-0.2565 -0.122344,-0.78224 0.01725,-1.09792 0.06927,-0.15659 0.273925,-0.41085 0.564921,-0.70185 0.3834,-0.3834 0.500298,-0.46936 0.731734,-0.53809 0.33671,-0.1 0.679952,-0.1044 0.984841,-0.0126 0.272252,0.0819 0.941489,0.52405 1.690793,1.11699 1.007226,0.79703 1.20883,0.95547 1.569692,1.23358 0.198143,0.1527 0.626593,0.48785 0.952111,0.74477 0.325519,0.25692 0.653243,0.5127 0.728275,0.5684 0.07503,0.0557 0.490108,0.37919 0.922391,0.71886 0.937496,0.73665 1.106248,0.86758 2.023114,1.5697 0.38812,0.29721 0.83942,0.6446 1.002889,0.77198 0.163468,0.12737 0.585027,0.45023 0.936797,0.71744 1.22095,0.92747 1.340262,1.03263 1.448006,1.2762 0.1147,0.2593 0.09477,0.5148 -0.05041,0.64618 -0.210974,0.19093 -0.376984,0.2114 -1.967452,0.24258 -1.534052,-0.13922 -1.403851,0.65984 -1.561568,0.66543 -0.527495,-0.3081 -1.422179,-1.05124 -1.856086,-1.37846 z"
         id="path960-3-1" />
      <path
         style="opacity:1;fill:url(#radialGradient1017-2-6);fill-opacity:1;stroke:url(#radialGradient1037-2-9);stroke-width:0.15704475;stroke-miterlimit:4;stroke-dasharray:none"
         d="m 50.792614,84.412275 c 0.461423,-0.22994 0.579009,-0.48341 0.570783,-1.23037 -0.0053,-0.48239 -0.05586,-0.76423 -0.319167,-1.77977 -0.283213,-1.09231 -0.31595,-1.28682 -0.345532,-2.05299 -0.03704,-0.95928 0.0045,-1.22987 0.317828,-2.06829 0.315471,-0.84428 0.477831,-1.13061 1.014907,-1.78979 0.64044,-0.78605 0.761909,-1.02932 0.761909,-1.52586 0,-0.48186 -0.09461,-0.68745 -0.49904,-1.08448 -0.241954,-0.23753 -2.708185,-2.06672 -2.786477,-2.06672 -0.0088,0 -0.0031,0.0675 0.01271,0.14999 0.02152,0.11258 -0.02274,0.2014 -0.177453,0.35611 -0.316095,0.3161 -0.682731,0.39827 -2.054037,0.46038 -0.654841,0.0297 -1.245012,0.083 -1.311491,0.11861 -0.06648,0.0356 -0.138596,0.13531 -0.160261,0.22163 -0.03587,0.14292 0.106279,0.30036 1.591722,1.76294 2.337626,2.30165 2.491299,2.56803 2.579659,4.47174 0.05228,1.12648 -0.02894,1.87787 -0.328448,3.03819 -0.50511,1.95687 -0.472944,2.66513 0.13728,3.02275 0.332335,0.19476 0.598293,0.19367 0.995113,-0.004 z"
         id="path985-6-9" />
    </g>
  </g>
</svg>
